# xmcd CD database file
#
# Track frame offsets:
#	150
#	20405
#	26798
#	32538
#	46024
#	52427
#	77864
#	100469
#	120947
#	141499
#	159450
#	181676
#	198977
#	222939
#	245672
#	263537
#	289612
#
# Disc length: 4361 seconds
#
# Revision: 3
# Processed by: cddbd v1.5.2PL0 Copyright (c) Steve Scherf et al.
# Submitted via: CDex 1.70beta2
#
DISCID=ed110711
DTITLE=Perry Rhodan - 005 - Vorstoß nach Arkon - CD 05
DYEAR=2004
DGENRE=Hörbuch
TTITLE0=Kapitel 13-08
TTITLE1=Kapitel 13-09
TTITLE2=Kapitel 13-10
TTITLE3=Kapitel 13-11
TTITLE4=Kapitel 13-12
TTITLE5=Kapitel 14-01
TTITLE6=Kapitel 14-02
TTITLE7=Kapitel 14-03
TTITLE8=Kapitel 14-04
TTITLE9=Kapitel 14-05
TTITLE10=Kapitel 14-06
TTITLE11=Kapitel 14-07
TTITLE12=Kapitel 14-08
TTITLE13=Kapitel 14-09
TTITLE14=Kapitel 14-10
TTITLE15=Kapitel 15-01
TTITLE16=Kapitel 15-02
EXTD=YEAR: 2004
EXTT0=
EXTT1=
EXTT2=
EXTT3=
EXTT4=
EXTT5=
EXTT6=
EXTT7=
EXTT8=
EXTT9=
EXTT10=
EXTT11=
EXTT12=
EXTT13=
EXTT14=
EXTT15=
EXTT16=
PLAYORDER=
